<svg xmlns="http://www.w3.org/2000/svg" width="25" height="25" viewBox="0 0 25 25"><defs><style>.a{fill:#b3afb3;}</style></defs><path class="a" d="M25,15.313V9.687l-2.364-.459a10.608,10.608,0,0,0-.651-1.57l1.35-2L19.361,1.679l-2,1.346a10.6,10.6,0,0,0-1.59-.661L15.313,0H9.687L9.228,2.364a10.609,10.609,0,0,0-1.57.651l-2-1.35L1.679,5.639l1.346,2a10.6,10.6,0,0,0-.661,1.59L0,9.687v5.626l2.364.459a10.611,10.611,0,0,0,.651,1.57l-1.35,2,3.974,3.982,2-1.346a10.6,10.6,0,0,0,1.59.661L9.687,25h5.626l.459-2.364a10.608,10.608,0,0,0,1.57-.651l2,1.35,3.982-3.974-1.346-2a10.607,10.607,0,0,0,.661-1.59ZM21.476,14.5l-.121.438a9.137,9.137,0,0,1-.872,2.1l-.226.4,1.174,1.743-2.272,2.268-1.74-1.177-.4.225a9.136,9.136,0,0,1-2.081.863l-.438.121-.4,2.059h-3.21l-.4-2.059-.438-.121a9.136,9.136,0,0,1-2.1-.872l-.4-.226L5.823,21.431,3.555,19.159l1.177-1.74-.225-.4a9.137,9.137,0,0,1-.863-2.081L3.524,14.5l-2.059-.4v-3.21l2.059-.4.121-.438a9.137,9.137,0,0,1,.872-2.1l.226-.395L3.569,5.823,5.841,3.555l1.74,1.177.4-.225a9.138,9.138,0,0,1,2.081-.863l.438-.121.4-2.059h3.21l.4,2.059.438.121a9.137,9.137,0,0,1,2.1.872l.4.226,1.743-1.174,2.268,2.272-1.177,1.74.225.4a9.139,9.139,0,0,1,.863,2.081l.121.438,2.059.4v3.21Z"/><g transform="translate(5.731 5.611)"><path class="a" d="M105.958,96.986a6.889,6.889,0,1,0,6.889,6.889A6.9,6.9,0,0,0,105.958,96.986Zm0,12.479a5.59,5.59,0,1,1,5.59-5.59A5.6,5.6,0,0,1,105.958,109.465Z" transform="translate(-99.069 -96.986)"/></g><g transform="translate(9.082 8.364)"><path class="a" d="M182.083,166.648a2.185,2.185,0,1,0-3.662,0,3.017,3.017,0,0,0-1.691,2.707v.65h7.049v-.65A3.018,3.018,0,0,0,182.083,166.648Zm-1.832-2.075a.886.886,0,1,1-.886.886A.887.887,0,0,1,180.251,164.573Zm-2.093,4.136a1.717,1.717,0,0,1,1.586-1.064h1.021a1.717,1.717,0,0,1,1.586,1.064Z" transform="translate(-176.73 -163.273)"/></g></svg>