<svg xmlns="http://www.w3.org/2000/svg" xmlns:xlink="http://www.w3.org/1999/xlink" width="29.333" height="22.898" viewBox="0 0 29.333 22.898"><defs><style>.a{fill:url(#a);}</style><linearGradient id="a" x1="0.5" x2="0.5" y2="1" gradientUnits="objectBoundingBox"><stop offset="0" stop-color="#15eded"/><stop offset="1" stop-color="#029cf5"/></linearGradient></defs><g transform="translate(0.001 -36.758)"><g transform="translate(-0.001 36.758)"><path class="a" d="M27.24,43.675c-.119-.892-.135-2.428.693-2.943a.31.31,0,0,0,.039-.035c.677-.217,1.146-.521.778-.93l-9.989-3.01L2.587,39.007S.735,39.271.9,42.149a3.718,3.718,0,0,0,1.011,2.714l-1.327.4c-.368.409.1.713.777.929a.268.268,0,0,0,.039.035c.828.516.812,2.052.693,2.944C-.881,50.015.187,50.29.187,50.29l.652.158A3.165,3.165,0,0,0,.01,53.14C.175,56.017,1.7,56.215,1.7,56.215l10.584,3.44,15.975-3.87s1.068-.276-1.907-1.12c-.12-.89-.136-2.426.693-2.943a.245.245,0,0,0,.039-.035c.677-.217,1.145-.52.777-.929l-.694-.21c.463-.279,1.159-1.009,1.268-2.9a3.365,3.365,0,0,0-.659-2.517l1.372-.332S30.214,44.52,27.24,43.675Zm-13.363-.037,2.686-.552,9.079-1.866L27,40.942a4.683,4.683,0,0,0-.343,2.569c.016.157.034.3.051.41l-1.48.368L13.765,47.141Zm-11.54,2.8,1.352.278,8.719,1.792.762.156h0l2.284.469.113,3.5L3.79,49.707l-1.161-.289c.017-.109.035-.253.051-.411A4.684,4.684,0,0,0,2.338,46.438ZM1.812,42.01a2.271,2.271,0,0,1,.4-1.6.718.718,0,0,1,.524-.217.889.889,0,0,1,.133.01l6.969,2.272,3.477,1.134L13.2,47.136,3.443,44.4l-.515-.144a.312.312,0,0,0-.064-.01C2.824,44.244,1.859,44.156,1.812,42.01ZM12.306,58.128,2.037,55.249a.306.306,0,0,0-.064-.01C1.932,55.236.968,55.147.921,53a2.274,2.274,0,0,1,.4-1.6.72.72,0,0,1,.525-.217.928.928,0,0,1,.133.01h0L12.419,54.6ZM25.762,54.5c.016.158.034.3.052.411l-12.94,3.219.113-3.5,2.766-.569.409.1,1.531-.5,7.059-1.45,1.353-.278A4.679,4.679,0,0,0,25.762,54.5Zm.713-4.76a.249.249,0,0,0-.069.011l-.976.273-9.292,2.606-.114-3.527,3.049-.994L26.454,45.7a.769.769,0,0,1,.673.2,2.275,2.275,0,0,1,.4,1.6C27.474,49.651,26.509,49.74,26.474,49.743Z" transform="translate(0.001 -36.758)"/></g></g></svg>