<svg xmlns="http://www.w3.org/2000/svg" width="20" height="15.612" viewBox="0 0 20 15.612"><defs><style>.a{fill:#b3afb3;}</style></defs><g transform="translate(0.001 -36.758)"><g transform="translate(-0.001 36.758)"><path class="a" d="M18.573,41.474c-.081-.608-.092-1.655.472-2.007a.211.211,0,0,0,.026-.024c.462-.148.781-.355.53-.634l-6.81-2.052L1.764,38.291S.5,38.472.614,40.434a2.535,2.535,0,0,0,.689,1.85l-.9.273c-.251.279.068.486.53.634a.182.182,0,0,0,.026.024c.564.352.553,1.4.472,2.007-2.027.576-1.3.763-1.3.763l.445.108a2.158,2.158,0,0,0-.565,1.835c.113,1.962,1.15,2.1,1.15,2.1L8.373,52.37l10.892-2.638s.728-.188-1.3-.764c-.082-.607-.093-1.654.473-2.007a.167.167,0,0,0,.026-.024c.462-.148.781-.355.53-.634l-.473-.143c.316-.19.79-.688.864-1.981a2.294,2.294,0,0,0-.449-1.716l.936-.226S20.6,42.05,18.573,41.474Zm-9.111-.025,1.832-.376,6.19-1.272.922-.19a3.193,3.193,0,0,0-.234,1.752c.011.107.023.205.035.28l-1.009.251L9.385,43.837ZM1.594,43.358l.922.19L8.46,44.77l.519.106h0l1.557.32.077,2.388-8.03-2-.792-.2c.012-.075.024-.172.035-.28A3.194,3.194,0,0,0,1.594,43.358Zm-.358-3.019a1.549,1.549,0,0,1,.27-1.091.49.49,0,0,1,.358-.148.606.606,0,0,1,.09.007L6.7,40.656l2.371.773L9,43.834l-6.65-1.865L2,41.871a.213.213,0,0,0-.044-.007C1.925,41.862,1.267,41.8,1.235,40.339ZM8.39,51.328l-7-1.963a.208.208,0,0,0-.044-.007c-.028,0-.686-.062-.718-1.525A1.55,1.55,0,0,1,.9,46.742a.491.491,0,0,1,.358-.148.632.632,0,0,1,.091.007h0l7.122,2.322Zm9.174-2.471c.011.108.023.206.035.28L8.777,51.332l.077-2.388,1.886-.388.279.067,1.044-.339,4.813-.989.923-.19A3.19,3.19,0,0,0,17.564,48.857Zm.486-3.245a.17.17,0,0,0-.047.007l-.665.186L11,47.581l-.077-2.4L13,44.5l5.033-1.641A.524.524,0,0,1,18.5,43a1.551,1.551,0,0,1,.27,1.091C18.732,45.549,18.074,45.609,18.05,45.611Z" transform="translate(0.001 -36.758)"/></g></g></svg>