<svg xmlns="http://www.w3.org/2000/svg" width="24.625" height="20" viewBox="0 0 24.625 20"><defs><style>.a{fill:#b3afb3;}</style></defs><path class="a" d="M1.2,15.528a2.123,2.123,0,0,0,.586.191l-.318.454a.724.724,0,0,0-.123.308L.868,19.672a.721.721,0,0,0,1.057.74L4.6,18.965a2.162,2.162,0,0,0,3.338.567,2.163,2.163,0,0,0,3.607-1.612v-.276a9.941,9.941,0,0,0,4.329,1A10.048,10.048,0,0,0,20.3,17.62v1.743a.721.721,0,0,0,1.044.645l2.886-1.443a.722.722,0,0,0,.4-.645V9.263a.722.722,0,0,0-.721-.721H18.925l-5.089-2.49L15.769,3.29a.722.722,0,0,0-.177-1L13.228.63a.722.722,0,0,0-1,.177L9.665,4.461a2.153,2.153,0,0,0-1.752-.114L5.168,5.539a2.156,2.156,0,0,0-.964.824L.265,12.56A2.16,2.16,0,0,0,1.2,15.528Zm1.311,2.929.237-1.6.645-.922a2.906,2.906,0,0,0,1.093.954l-.556.795Zm3.986.185a.722.722,0,0,1-.721-.722v-.353L6.03,17.2H7.214v.721A.722.722,0,0,1,6.493,18.642Zm2.886,0a.722.722,0,0,1-.721-.722V17.2H10.1v.721A.722.722,0,0,1,9.379,18.642Zm13.8-1.167L21.74,18.2V9.985h1.443ZM18.441,9.911a.722.722,0,0,0,.317.073H20.3v6.037A9.479,9.479,0,0,1,15.872,17.2a9.743,9.743,0,0,1-4.728-1.367.73.73,0,0,0-.323-.076H5.771a1.445,1.445,0,0,1-1.432-1.272.721.721,0,0,0,0-.315,1.445,1.445,0,0,1,1.436-1.3h4.453a5.611,5.611,0,0,0,3.994-1.654A.721.721,0,0,0,13.2,10.2a4.178,4.178,0,0,1-2.973,1.232h-.153L13,7.248Zm-7.1-5.321,1.182.828L8.31,11.428H6.548L11.336,4.59Zm1.655-2.364,1.182.828-.828,1.182-1.182-.828ZM1.506,13.3,5.422,7.138a.719.719,0,0,1,.321-.275L8.454,5.685a.724.724,0,0,1,.362-.012l-4.2,6a2.894,2.894,0,0,0-1.7,2.2.829.829,0,0,1-1.079.371.721.721,0,0,1-.336-.94Zm0,0" transform="translate(-0.001 -0.5)"/></svg>