<svg xmlns="http://www.w3.org/2000/svg" width="25.424" height="20.905" viewBox="0 0 25.424 20.905"><defs><style>.a{opacity:0.5;}.b{fill:#b3afb3;}</style></defs><g class="a" transform="translate(0 -5.378)"><g transform="translate(0 17.295)"><path class="b" d="M23.934,331H1.49a1.49,1.49,0,0,0,0,2.979H23.934a1.49,1.49,0,0,0,0-2.979Z" transform="translate(0 -331)"/></g><g transform="translate(1.49 21.764)"><path class="b" d="M30,421v3.774a.744.744,0,0,0,.745.745H51.7a.744.744,0,0,0,.745-.745V421Z" transform="translate(-30 -421)"/></g><g transform="translate(9.732 5.378)"><path class="b" d="M198.979,91a2.979,2.979,0,1,0,2.979,2.979A2.982,2.982,0,0,0,198.979,91Z" transform="translate(-196 -91)"/></g><g transform="translate(6.948 11.966)"><path class="b" d="M148.307,223.684a4.4,4.4,0,0,1-5.226,0,5.976,5.976,0,0,0-3.151,3.839h11.527A5.976,5.976,0,0,0,148.307,223.684Z" transform="translate(-139.931 -223.684)"/></g></g></svg>