<svg xmlns="http://www.w3.org/2000/svg" width="14.72" height="20.199" viewBox="0 0 14.72 20.199"><defs><style>.a{fill:#b3afb3;}</style></defs><path class="a" d="M44.772,3.925a.637.637,0,0,1-.641-.613V0H34.141A.637.637,0,0,0,33.5.613V19.5a.643.643,0,0,0,.625.634l13.507.061h0a.6.6,0,0,0,.42-.2.65.65,0,0,0,.167-.455V3.925ZM44.813,14.8h-8.1a.613.613,0,1,1,0-1.227h8.1a.613.613,0,1,1,0,1.227Zm0-2.7h-8.1a.613.613,0,1,1,0-1.227h8.1a.613.613,0,1,1,0,1.227Zm0-2.7h-8.1a.613.613,0,1,1,0-1.227h8.1a.613.613,0,1,1,0,1.227Zm0-2.535h-8.1a.613.613,0,1,1,0-1.227h8.1a.613.613,0,1,1,0,1.227ZM48,2.7H45.358V.195Z" transform="translate(-33.5)"/></svg>