<svg xmlns="http://www.w3.org/2000/svg" width="23.664" height="32.472" viewBox="0 0 23.664 32.472"><defs><style>.a{fill:#fff;}</style></defs><path class="a" d="M51.62,6.31a1.024,1.024,0,0,1-1.03-.986V0H34.53A1.024,1.024,0,0,0,33.5.986V31.354a1.034,1.034,0,0,0,1,1.019l21.714.1h0a.971.971,0,0,0,.675-.321,1.044,1.044,0,0,0,.268-.731V6.31ZM51.686,23.8H38.671a.986.986,0,1,1,0-1.972H51.686a.986.986,0,1,1,0,1.972Zm0-4.338H38.671a.986.986,0,1,1,0-1.972H51.686a.986.986,0,1,1,0,1.972Zm0-4.338H38.671a.986.986,0,1,1,0-1.972H51.686a.986.986,0,1,1,0,1.972Zm0-4.075H38.671a.986.986,0,1,1,0-1.972H51.686a.986.986,0,1,1,0,1.972Zm5.118-6.7H52.562V.313Z" transform="translate(-33.5)"/></svg>