<svg xmlns="http://www.w3.org/2000/svg" xmlns:xlink="http://www.w3.org/1999/xlink" width="19.492" height="26.371" viewBox="0 0 19.492 26.371"><defs><style>.a{fill:url(#a);}</style><linearGradient id="a" x1="0.401" y1="0.386" x2="1" y2="1" gradientUnits="objectBoundingBox"><stop offset="0" stop-color="#f5b400"/><stop offset="1" stop-color="#d7311c"/></linearGradient></defs><g transform="translate(-61.38)"><path class="a" d="M76.27,0H63A1.62,1.62,0,0,0,61.38,1.617V24.754A1.619,1.619,0,0,0,63,26.371H79.255a1.619,1.619,0,0,0,1.617-1.617V5Zm.382,2.42,2.017,2.192H76.651Zm2.863,22.334a.26.26,0,0,1-.26.259H63a.26.26,0,0,1-.259-.259V1.617A.259.259,0,0,1,63,1.359h12.3V5.292a.679.679,0,0,0,.68.678h3.542V24.754ZM74.327,6.26H64.194V3.547H74.331c0,.015,0,.027,0,.042Z" transform="translate(0)"/></g></svg>