<svg xmlns="http://www.w3.org/2000/svg" width="21.577" height="19.117" viewBox="0 0 21.577 19.117"><defs><style>.a{fill:#b3afb3;}</style></defs><path class="a" d="M3.674,19.98a.428.428,0,0,0,.465.447l5.6-.006.008-4.129a.6.6,0,0,1,.655-.681h2.322c.868,0,.814.681.814.681l-.01,4.116H19a.534.534,0,0,0,.588-.556V12.239L11.871,6.055l-8.2,6.184Z" transform="translate(-0.956 -1.309)"/><path class="a" d="M0,10.489s.676,1.155,2.151,0L10.966,3.58l8.264,6.866c1.707,1.141,2.347,0,2.347,0L10.966,1.54Z" transform="translate(0 -1.54)"/><path class="a" d="M23.138,4.275h-1.97l.008,2.388,1.961,1.664Z" transform="translate(-3.921 -2.251)"/></svg>