<svg xmlns="http://www.w3.org/2000/svg" width="22.573" height="20" viewBox="0 0 22.573 20"><defs><style>.a{fill:#a5220c;}</style></defs><path class="a" d="M3.674,20.623a.448.448,0,0,0,.487.468l5.855-.006.009-4.32a.629.629,0,0,1,.685-.712h2.429c.908,0,.852.712.852.712l-.01,4.306h5.731a.558.558,0,0,0,.615-.582V12.524L12.249,6.055,3.674,12.524Z" transform="translate(-0.83 -1.09)"/><path class="a" d="M0,10.9s.708,1.208,2.251,0l9.221-7.228,8.646,7.183c1.786,1.194,2.455,0,2.455,0L11.472,1.54Z" transform="translate(0 -1.54)"/><path class="a" d="M23.228,4.275h-2.06l.009,2.5,2.052,1.741Z" transform="translate(-3.124 -2.158)"/></svg>