<svg xmlns="http://www.w3.org/2000/svg" xmlns:xlink="http://www.w3.org/1999/xlink" width="29" height="22.156" viewBox="0 0 29 22.156"><defs><style>.a{fill:url(#a);}</style><linearGradient id="a" x1="1" x2="1" y2="1" gradientUnits="objectBoundingBox"><stop offset="0" stop-color="#46eeaa"/><stop offset="1" stop-color="#2cbfc7"/></linearGradient></defs><g transform="translate(0 -35.048)"><g transform="translate(0 35.048)"><path class="a" d="M35.868,35.049h0a1.023,1.023,0,0,0-.727.3,1.033,1.033,0,0,0-.305.737V51.648a1.041,1.041,0,0,0,1.039,1.037c2.416.006,6.462.509,9.254,3.431V39.831a.994.994,0,0,0-.143-.526C42.692,35.615,38.289,35.055,35.868,35.049Z" transform="translate(-31.432 -35.049)"/><path class="a" d="M167.044,51.647V36.086a1.033,1.033,0,0,0-.305-.737,1.023,1.023,0,0,0-.727-.3h0c-2.421.006-6.824.566-9.116,4.257a.994.994,0,0,0-.143.526V56.115c2.792-2.922,6.839-3.425,9.254-3.431A1.041,1.041,0,0,0,167.044,51.647Z" transform="translate(-141.445 -35.048)"/><path class="a" d="M182.7,71.8h-.752v13.01A2.655,2.655,0,0,1,179.3,87.46c-2.049,0-5.427.406-7.82,2.67a24.982,24.982,0,0,1,10.986.212,1.038,1.038,0,0,0,1.27-1.011V72.839A1.039,1.039,0,0,0,182.7,71.8Z" transform="translate(-154.738 -68.212)"/><path class="a" d="M1.79,84.811V71.8H1.038A1.039,1.039,0,0,0,0,72.839V89.33a1.038,1.038,0,0,0,1.27,1.011,24.98,24.98,0,0,1,10.986-.212c-2.392-2.264-5.771-2.665-7.82-2.67A2.655,2.655,0,0,1,1.79,84.811Z" transform="translate(0 -68.212)"/></g></g></svg>