<svg xmlns="http://www.w3.org/2000/svg" width="20" height="15.28" viewBox="0 0 20 15.28"><defs><style>.a{fill:#b3afb3;}</style></defs><g transform="translate(0 -35.048)"><g transform="translate(0 35.048)"><path class="a" d="M35.547,35.049h0a.705.705,0,0,0-.5.208.713.713,0,0,0-.211.508V46.5a.718.718,0,0,0,.717.715,8.853,8.853,0,0,1,6.382,2.366V38.347a.686.686,0,0,0-.1-.362C40.253,35.44,37.216,35.053,35.547,35.049Z" transform="translate(-32.487 -35.049)"/><path class="a" d="M163.85,46.5V35.764a.713.713,0,0,0-.211-.508.706.706,0,0,0-.5-.208h0c-1.67,0-4.706.391-6.287,2.936a.686.686,0,0,0-.1.362V49.577a8.853,8.853,0,0,1,6.382-2.366A.718.718,0,0,0,163.85,46.5Z" transform="translate(-146.195 -35.048)"/><path class="a" d="M179.219,71.8H178.7v8.972a1.831,1.831,0,0,1-1.825,1.827,7.938,7.938,0,0,0-5.393,1.841,17.229,17.229,0,0,1,7.577.146.716.716,0,0,0,.876-.7V72.517A.716.716,0,0,0,179.219,71.8Z" transform="translate(-159.934 -69.326)"/><path class="a" d="M1.234,80.773V71.8H.716A.716.716,0,0,0,0,72.517V83.89a.716.716,0,0,0,.876.7,17.228,17.228,0,0,1,7.577-.146A7.938,7.938,0,0,0,3.059,82.6,1.831,1.831,0,0,1,1.234,80.773Z" transform="translate(0 -69.326)"/></g></g></svg>