<svg xmlns="http://www.w3.org/2000/svg" width="107" height="119.518" viewBox="0 0 107 119.518"><defs><style>.a{fill:#fff;}</style></defs><g transform="translate(-0.5 0)"><path class="a" d="M150.993,112.315H189.31a1.751,1.751,0,0,0,0-3.5H150.993a1.751,1.751,0,0,0,0,3.5Zm0,0" transform="translate(-114.021 -83.412)"/><path class="a" d="M150.993,168.19H189.31a1.751,1.751,0,1,0,0-3.5H150.993a1.751,1.751,0,1,0,0,3.5Zm0,0" transform="translate(-114.021 -126.244)"/><path class="a" d="M103.2,108.813H99.321a1.751,1.751,0,0,0,0,3.5H103.2a1.751,1.751,0,0,0,0-3.5Zm0,0" transform="translate(-74.411 -83.412)"/><path class="a" d="M103.2,164.688H99.321a1.751,1.751,0,1,0,0,3.5H103.2a1.751,1.751,0,1,0,0-3.5Zm0,0" transform="translate(-74.411 -126.244)"/><path class="a" d="M103.2,220.563H99.321a1.751,1.751,0,0,0,0,3.5H103.2a1.751,1.751,0,1,0,0-3.5Zm0,0" transform="translate(-74.411 -169.076)"/><path class="a" d="M103.2,276.438H99.321a1.751,1.751,0,1,0,0,3.5H103.2a1.751,1.751,0,1,0,0-3.5Zm0,0" transform="translate(-74.411 -211.908)"/><path class="a" d="M103.2,332.313H99.321a1.751,1.751,0,0,0,0,3.5H103.2a1.751,1.751,0,1,0,0-3.5Zm0,0" transform="translate(-74.411 -254.74)"/><path class="a" d="M103.2,388.184H99.321a1.751,1.751,0,0,0,0,3.5H103.2a1.751,1.751,0,0,0,0-3.5Zm0,0" transform="translate(-74.411 -297.568)"/><path class="a" d="M102.313,12.52a8.926,8.926,0,0,0-4.731-.791V4.422A4.428,4.428,0,0,0,93.159,0h-81A4.427,4.427,0,0,0,7.735,4.422v7.935H2.25a1.751,1.751,0,1,0,0,3.5H7.734V25.4H2.25a1.751,1.751,0,1,0,0,3.5H7.734v9.542H2.25a1.751,1.751,0,1,0,0,3.5H7.734v9.542H2.25a1.751,1.751,0,1,0,0,3.5H7.734V64.53H2.25a1.751,1.751,0,0,0,0,3.5H7.734v9.541H2.25a1.751,1.751,0,0,0,0,3.5H7.734v9.541H2.25a1.751,1.751,0,1,0,0,3.5H7.734v9.542H2.25a1.751,1.751,0,0,0,0,3.5H7.734V115.1a4.427,4.427,0,0,0,4.422,4.422H48.572a1.751,1.751,0,0,0,0-3.5H12.157a.932.932,0,0,1-.92-.92V107.16h5.484a1.751,1.751,0,0,0,0-3.5H11.237V94.117h5.484a1.751,1.751,0,1,0,0-3.5H11.237V81.075h5.484a1.751,1.751,0,0,0,0-3.5H11.237V68.031h5.484a1.751,1.751,0,0,0,0-3.5H11.237V54.988h5.484a1.751,1.751,0,0,0,0-3.5H11.237V41.945h5.484a1.751,1.751,0,1,0,0-3.5H11.237V28.9h5.484a1.751,1.751,0,0,0,0-3.5H11.237V15.859h5.484a1.751,1.751,0,1,0,0-3.5H11.237V4.422a.932.932,0,0,1,.92-.921h81a.934.934,0,0,1,.921.921v8.433a9.884,9.884,0,0,0-4.252,5.174,2.791,2.791,0,0,0-2.739,1.328l-.005.008c-.113.191.025-.085-2.1,4.471a2.879,2.879,0,0,0-.256,1.021,2.839,2.839,0,0,0-.617.852l-1.968,4.22a2.8,2.8,0,0,0,.636,3.223l-8.55,18.335H36.972a1.751,1.751,0,1,0,0,3.5H72.594L68.145,64.53H36.972a1.751,1.751,0,0,0,0,3.5h29.54l-4.449,9.542H36.972a1.751,1.751,0,1,0,0,3.5H60.43L57.654,87.03a1.791,1.791,0,0,0-.156.568v0l-.3,3.024c-.138-.013-20.091-.008-20.229-.008a1.751,1.751,0,0,0,0,3.5H56.859l-1.081,11.029a3.184,3.184,0,0,0,1.838,3.222l.005,0a3.183,3.183,0,0,0,3.635-.656l.011-.009,6.4-6.533L73.6,95.111a1.778,1.778,0,0,0,.336-.485L94.08,51.437V62.2a1.751,1.751,0,0,0,3.5,0V43.927l1.492-3.2a2.788,2.788,0,0,0,2.81-1.592l1.968-4.22a2.774,2.774,0,0,0,.256-1.022,2.775,2.775,0,0,0,.617-.851l1.968-4.22a2.788,2.788,0,0,0-.587-3.174l.553-1.186a9,9,0,0,0-4.347-11.942ZM85.9,34.752l3.383,1.578L64.95,88.5l-3.384-1.578L85.9,34.752Zm-25.981,64.1,3.52,1.64-4.089,4.175Zm.362-3.7.465-4.752,8.632,4.025-3.341,3.411Zm11.231-3.595-3.384-1.578L92.452,37.809l3.384,1.578ZM88.46,24.666l1.362-2.92.169.079h0l13.223,6.166-1.361,2.92-13.4-6.246Zm12.373-8.973a5.5,5.5,0,0,1,2.653,7.288L103,24.026l-9.941-4.635c.954-2.045,1.4-2.9,3.5-3.844a5.467,5.467,0,0,1,4.28.146ZM99.013,37l-.109-.051h0L85.618,30.759l1.362-2.92,13.394,6.246Zm0,0"/><path class="a" d="M274.78,293.938a1.751,1.751,0,0,0-1.751,1.751v44.73a.934.934,0,0,1-.921.921H235.692a1.751,1.751,0,1,0,0,3.5h36.416a4.428,4.428,0,0,0,4.422-4.422v-44.73A1.751,1.751,0,0,0,274.78,293.938Zm0,0" transform="translate(-178.949 -225.323)"/></g></svg>