<svg xmlns="http://www.w3.org/2000/svg" width="31.5" height="31.5" viewBox="0 0 31.5 31.5"><defs><style>.a{fill:#fff;}</style></defs><path class="a" d="M262.969,8.785v7.367h7.367Zm0,0" transform="translate(-246.79 -8.245)"/><path class="a" d="M12.981,23.164A10.194,10.194,0,0,1,23.164,12.982c.311,0,.619.015.923.042V9.754H15.256a.923.923,0,0,1-.923-.923V0H.923A.923.923,0,0,0,0,.923V30.577a.923.923,0,0,0,.923.923h16.4a10.177,10.177,0,0,1-4.343-8.336Zm0,0" transform="translate(0 0)"/><path class="a" d="M327.2,323.8h-1.548v-1.548a.923.923,0,0,0-1.846,0V323.8h-1.548a.923.923,0,0,0,0,1.846h1.548V327.2a.923.923,0,0,0,1.846,0v-1.548H327.2a.923.923,0,0,0,0-1.846Zm0,0" transform="translate(-301.566 -301.563)"/><path class="a" d="M249.336,241a8.336,8.336,0,1,0,8.336,8.336A8.346,8.346,0,0,0,249.336,241Zm0,14.827a6.491,6.491,0,1,1,6.491-6.491A6.5,6.5,0,0,1,249.336,255.827Zm0,0" transform="translate(-226.173 -226.173)"/></svg>