<svg xmlns="http://www.w3.org/2000/svg" width="22.179" height="22.848" viewBox="0 0 22.179 22.848"><defs><style>.a{fill:#b3afb3;}</style></defs><path class="a" d="M262.969,8.785v5.778h5.08Zm0,0" transform="translate(-253.039 -8.785)"/><path class="a" d="M8.09,16.178c0-3.921,2.846-7.111,6.345-7.111a5.719,5.719,0,0,1,.575.03V6.812h-5.5a.613.613,0,0,1-.575-.645V0H.575A.613.613,0,0,0,0,.645V21.356A.613.613,0,0,0,.575,22H10.8A7.39,7.39,0,0,1,8.09,16.178Zm0,0" transform="translate(0 0)"/><path class="a" d="M326.363,323.45h-1.327v-1.327a.791.791,0,0,0-1.582,0v1.327h-1.327a.791.791,0,0,0,0,1.582h1.327v1.327a.791.791,0,1,0,1.582,0v-1.327h1.327a.791.791,0,1,0,0-1.582Zm0,0" transform="translate(-308.235 -307.987)"/><path class="a" d="M247.385,241a6.385,6.385,0,1,0,6.385,6.385A6.393,6.393,0,0,0,247.385,241Zm0,11.357a4.972,4.972,0,1,1,4.972-4.972A4.977,4.977,0,0,1,247.385,252.357Zm0,0" transform="translate(-231.592 -230.923)"/></svg>