<svg xmlns="http://www.w3.org/2000/svg" width="20" height="20" viewBox="0 0 20 20"><defs><style>.a{fill:#b3afb3;}</style></defs><g transform="translate(14.717)"><path class="a" d="M417.016,2.969,415.255.36a1.041,1.041,0,0,0-1.575,0l-1.761,2.609a.522.522,0,0,0-.093.292V18.043c0,1.08,1.181,1.957,2.641,1.957s2.641-.874,2.641-1.957V3.261A.522.522,0,0,0,417.016,2.969Zm-1.668,15.074c0,.853-1.761.859-1.761,0v-.652h1.761Zm0-14.13h-1.761v-.5l.88-1.3.88,1.3v.5Z" transform="translate(-411.826 0)"/></g><path class="a" d="M12.385,0H.572A.616.616,0,0,0,0,.652v18.7A.616.616,0,0,0,.572,20H12.385a.616.616,0,0,0,.572-.652V.652A.616.616,0,0,0,12.385,0ZM5.145,2.609H7.812a.616.616,0,0,1,.572.652.616.616,0,0,1-.572.652H5.145a.616.616,0,0,1-.572-.652A.616.616,0,0,1,5.145,2.609ZM10.1,16.957H2.858a.658.658,0,0,1,0-1.3H10.1a.658.658,0,0,1,0,1.3ZM2.286,13.7a.616.616,0,0,1,.572-.652h3.43a.658.658,0,0,1,0,1.3H2.858A.616.616,0,0,1,2.286,13.7Zm7.812.652H8.574a.658.658,0,0,1,0-1.3H10.1a.658.658,0,0,1,0,1.3Zm0-2.609H2.858a.658.658,0,0,1,0-1.3H10.1a.658.658,0,0,1,0,1.3ZM2.286,8.478a.616.616,0,0,1,.572-.652H5.145a.658.658,0,0,1,0,1.3H2.858A.616.616,0,0,1,2.286,8.478ZM10.1,9.13H7.431a.658.658,0,0,1,0-1.3H10.1a.658.658,0,0,1,0,1.3Zm0-2.609H2.858a.616.616,0,0,1-.572-.652.616.616,0,0,1,.572-.652H10.1a.616.616,0,0,1,.572.652A.616.616,0,0,1,10.1,6.522Z"/></svg>