<svg xmlns="http://www.w3.org/2000/svg" width="29.272" height="29.271" viewBox="0 0 29.272 29.271"><defs><style>.a{fill:#fff;}</style></defs><g transform="translate(23.544)"><path class="a" d="M417.452,4.346,415.543.528a.955.955,0,0,0-1.708,0l-1.909,3.818a.96.96,0,0,0-.1.427V26.408a2.864,2.864,0,0,0,5.727,0V4.773A.961.961,0,0,0,417.452,4.346Zm-1.808,22.062a.955.955,0,0,1-1.909,0v-.955h1.909Zm0-20.681h-1.909V5l.954-1.909L415.644,5v.729Z" transform="translate(-411.826 0)"/></g><path class="a" d="M20.681,0H.955A.955.955,0,0,0,0,.955V28.317a.955.955,0,0,0,.955.954H20.681a.955.955,0,0,0,.955-.955V.955A.955.955,0,0,0,20.681,0ZM8.591,3.818h4.454a.955.955,0,1,1,0,1.909H8.591a.955.955,0,0,1,0-1.909Zm8.272,21H4.773a.955.955,0,0,1,0-1.909h12.09a.955.955,0,0,1,0,1.909ZM3.818,20.045a.955.955,0,0,1,.955-.955H10.5A.955.955,0,1,1,10.5,21H4.773A.955.955,0,0,1,3.818,20.045ZM16.863,21H14.318a.955.955,0,0,1,0-1.909h2.545a.955.955,0,1,1,0,1.909Zm0-3.818H4.773a.955.955,0,0,1,0-1.909h12.09a.955.955,0,0,1,0,1.909ZM3.818,12.409a.955.955,0,0,1,.955-.955H8.591a.955.955,0,0,1,0,1.909H4.773A.955.955,0,0,1,3.818,12.409Zm13.045.955H12.409a.955.955,0,1,1,0-1.909h4.454a.955.955,0,1,1,0,1.909Zm0-3.818H4.773a.955.955,0,0,1,0-1.909h12.09a.955.955,0,0,1,0,1.909Z"/></svg>