<svg xmlns="http://www.w3.org/2000/svg" width="119.663" height="119.667" viewBox="0 0 119.663 119.667"><defs><style>.a{fill:#fff;}</style></defs><g transform="translate(-0.5)"><path class="a" d="M113.15,12.621H105.2V7.012A7.019,7.019,0,0,0,98.192,0H25.737a7.019,7.019,0,0,0-7.012,7.012v35.65l-3.069-3.069A8.882,8.882,0,0,0,3.1,52.153L18.726,67.783v32.251a7.019,7.019,0,0,0,7.012,7.012h7.947v5.609a7.019,7.019,0,0,0,7.012,7.012H113.15a7.019,7.019,0,0,0,7.012-7.012V19.633a7.019,7.019,0,0,0-7.012-7.012ZM25.737,4.674H98.192a2.339,2.339,0,0,1,2.337,2.337v93.022a2.339,2.339,0,0,1-2.337,2.337H69.767l-6.076-14.5a2.344,2.344,0,0,0-.5-.75L47.624,71.56,23.4,47.336V7.012a2.34,2.34,0,0,1,2.337-2.337Zm-14.5,49.007,5.949-5.949L58.229,88.776l-5.95,5.95ZM60.726,92.891l3.124,7.455-7.455-3.124ZM6.4,42.9a4.207,4.207,0,0,1,5.95,0l1.528,1.528-5.949,5.95L6.4,48.848a4.21,4.21,0,0,1,0-5.949Zm17,57.136V72.457L50.627,99.684a2.344,2.344,0,0,0,.75.5l5.212,2.185H25.737a2.34,2.34,0,0,1-2.337-2.337Zm92.088,12.621a2.339,2.339,0,0,1-2.337,2.337H40.7a2.34,2.34,0,0,1-2.337-2.337v-5.609H98.192a7.019,7.019,0,0,0,7.012-7.012V17.3h7.947a2.339,2.339,0,0,1,2.337,2.337Zm0,0"/><path class="a" d="M153.817,58.674H201.5a2.337,2.337,0,0,0,0-4.674h-47.68a2.337,2.337,0,1,0,0,4.674Zm0,0" transform="translate(-115.693 -41.379)"/><path class="a" d="M304.178,103.008H287.817a2.337,2.337,0,0,0,0,4.674h16.361a2.337,2.337,0,0,0,0-4.674Zm0,0" transform="translate(-218.374 -78.932)"/><path class="a" d="M304.178,250.023H287.817a2.337,2.337,0,0,0,0,4.674h16.361a2.337,2.337,0,0,0,0-4.674Zm0,0" transform="translate(-218.374 -191.586)"/><path class="a" d="M201.341,250.023h-6.856a2.337,2.337,0,1,0,0,4.674h6.856a2.337,2.337,0,1,0,0-4.674Zm0,0" transform="translate(-146.855 -191.586)"/><path class="a" d="M304.178,299.461H287.817a2.337,2.337,0,0,0,0,4.674h16.361a2.337,2.337,0,0,0,0-4.674Zm0,0" transform="translate(-218.374 -229.47)"/><path class="a" d="M153.817,107.683h16.361a2.337,2.337,0,1,0,0-4.674H153.817a2.337,2.337,0,1,0,0,4.674Zm0,0" transform="translate(-115.693 -78.932)"/><path class="a" d="M153.817,156.686h38.331a2.337,2.337,0,1,0,0-4.674H153.817a2.337,2.337,0,1,0,0,4.674Zm0,0" transform="translate(-115.693 -116.483)"/><path class="a" d="M357.817,152.012a2.338,2.338,0,1,0,1.653.685A2.352,2.352,0,0,0,357.817,152.012Zm0,0" transform="translate(-272.013 -116.483)"/><path class="a" d="M153.817,205.695H201.5a2.337,2.337,0,0,0,0-4.674h-47.68a2.337,2.337,0,0,0,0,4.674Zm0,0" transform="translate(-115.693 -154.037)"/></g></svg>