<svg xmlns="http://www.w3.org/2000/svg" width="116.333" height="127.873" viewBox="0 0 116.333 127.873"><defs><style>.a{fill:#fff;}</style></defs><path class="a" d="M87.15,55.355v-24.2a2.8,2.8,0,0,0-.772-1.839L59.246.826A2.7,2.7,0,0,0,57.3,0H14.285A14.332,14.332,0,0,0,0,14.418v81.34a14.241,14.241,0,0,0,14.285,14.312H48.239A36.651,36.651,0,1,0,87.15,55.355Zm-27.184-46,18.2,19.162H66.362a6.437,6.437,0,0,1-6.4-6.422ZM14.285,104.74a8.929,8.929,0,0,1-8.954-8.981V14.418a9,9,0,0,1,8.954-9.088H54.635V22.094A11.75,11.75,0,0,0,66.362,33.847H81.819V54.662c-.8-.026-1.439-.106-2.132-.106a37.187,37.187,0,0,0-24.306,9.168H21.534a2.665,2.665,0,1,0,0,5.33h28.89a42.4,42.4,0,0,0-4.691,8.262h-24.2a2.665,2.665,0,0,0,0,5.331H44a36.576,36.576,0,0,0,1.6,22.121H14.285Zm65.377,17.83a31.316,31.316,0,1,1,31.315-31.316A31.348,31.348,0,0,1,79.661,122.57Zm0,0"/><path class="a" d="M78.216,207.014h27a2.665,2.665,0,1,0,0-5.33h-27a2.665,2.665,0,1,0,0,5.33Zm0,0" transform="translate(-56.682 -151.313)"/><path class="a" d="M265.784,284.064a2.645,2.645,0,0,0-3.891,0l-15.618,16.764a2.656,2.656,0,0,0,.134,3.758,2.721,2.721,0,0,0,3.811-.133l11.034-11.807v29.1a2.665,2.665,0,1,0,5.331,0v-29.1l10.953,11.807a2.659,2.659,0,0,0,3.892-3.625Zm0,0" transform="translate(-184.231 -212.478)"/></svg>