<svg xmlns="http://www.w3.org/2000/svg" width="20.016" height="14.923" viewBox="0 0 20.016 14.923"><defs><style>.a{fill:#b3afb3;}</style></defs><path class="a" d="M186,59.993l4.318-2.672L186,54.649Zm0,0" transform="translate(-177.69 -52.207)"/><path class="a" d="M98,275h1.385v1.3H98Zm0,0" transform="translate(-93.621 -262.713)"/><path class="a" d="M1.519,248.976H18.5a1.534,1.534,0,0,0,1.519-1.534V245H0v2.442A1.534,1.534,0,0,0,1.519,248.976Zm.372-2.234H3.842v-.682a.266.266,0,0,1,.276-.257h1.9a.267.267,0,0,1,.278.257v.682H17.262a.268.268,0,0,1,0,.536H6.3v.611a.289.289,0,0,1-.278.282h-1.9a.288.288,0,0,1-.276-.282v-.611H1.891a.268.268,0,0,1,0-.536Zm0,0" transform="translate(0 -234.054)"/><path class="a" d="M20.016,1.534A1.534,1.534,0,0,0,18.5,0H1.519A1.534,1.534,0,0,0,0,1.534V10.41H20.016ZM13.287,5.342l-5.1,3.153a.271.271,0,0,1-.142.04A.278.278,0,0,1,7.916,8.5a.272.272,0,0,1-.142-.234V1.96a.272.272,0,0,1,.142-.234.276.276,0,0,1,.276.006l5.1,3.153a.268.268,0,0,1,0,.456Zm0,0"/></svg>