<svg xmlns="http://www.w3.org/2000/svg" xmlns:xlink="http://www.w3.org/1999/xlink" width="26.75" height="19.943" viewBox="0 0 26.75 19.943"><defs><style>.a{fill:url(#a);}</style><linearGradient id="a" x1="0.5" y1="0.249" x2="0.5" y2="2.214" gradientUnits="objectBoundingBox"><stop offset="0" stop-color="#ff7c6e"/><stop offset="1" stop-color="#f5317f"/></linearGradient></defs><path class="a" d="M186,61.79l5.771-3.571L186,54.649Zm0,0" transform="translate(-174.894 -51.386)"/><path class="a" d="M98,275h1.851v1.732H98Zm0,0" transform="translate(-92.149 -258.58)"/><path class="a" d="M2.03,250.314H24.72a2.05,2.05,0,0,0,2.03-2.05V245H0v3.264A2.05,2.05,0,0,0,2.03,250.314Zm.5-2.985H5.135v-.911a.355.355,0,0,1,.369-.343H8.048a.357.357,0,0,1,.371.343v.911h14.65a.358.358,0,0,1,0,.717H8.419v.817a.386.386,0,0,1-.371.377H5.5a.385.385,0,0,1-.369-.377v-.817H2.527a.358.358,0,0,1,0-.717Zm0,0" transform="translate(0 -230.371)"/><path class="a" d="M26.75,2.05A2.05,2.05,0,0,0,24.72,0H2.03A2.05,2.05,0,0,0,0,2.05V13.912H26.75ZM17.757,7.138l-6.811,4.214a.363.363,0,0,1-.19.054.371.371,0,0,1-.177-.045.364.364,0,0,1-.19-.313V2.62a.364.364,0,0,1,.19-.313.369.369,0,0,1,.369.008l6.81,4.214a.358.358,0,0,1,0,.609Zm0,0"/></svg>