<svg xmlns="http://www.w3.org/2000/svg" width="22.25" height="20.621" viewBox="0 0 22.25 20.621"><defs><style>.a{fill:#b3afb3;}</style></defs><g transform="translate(0 -17.25)"><g transform="translate(0 17.25)"><path class="a" d="M21.613,228.244a.635.635,0,0,0-.637.637v5.8a2.861,2.861,0,0,1-2.857,2.857H4.132a2.861,2.861,0,0,1-2.857-2.857v-5.893a.637.637,0,0,0-1.275,0v5.893a4.136,4.136,0,0,0,4.132,4.132H18.118a4.136,4.136,0,0,0,4.132-4.132v-5.8A.638.638,0,0,0,21.613,228.244Z" transform="translate(0 -218.191)"/><path class="a" d="M137.41,22.392l2.965-2.965V32.36a.637.637,0,1,0,1.275,0V19.427l2.965,2.965a.642.642,0,0,0,.449.189.614.614,0,0,0,.449-.189.636.636,0,0,0,0-.9l-4.051-4.051a.645.645,0,0,0-.449-.189.617.617,0,0,0-.449.189l-4.051,4.051a.636.636,0,0,0,.9.9Z" transform="translate(-129.888 -17.25)"/></g></g></svg>