<svg xmlns="http://www.w3.org/2000/svg" xmlns:xlink="http://www.w3.org/1999/xlink" width="29.667" height="23.313" viewBox="0 0 29.667 23.313"><defs><style>.a{fill:url(#a);}</style><linearGradient id="a" x1="0.5" x2="0.5" y2="0.704" gradientUnits="objectBoundingBox"><stop offset="0" stop-color="#aff57a"/><stop offset="1" stop-color="#54d169"/></linearGradient></defs><g transform="translate(0 -54.831)"><g transform="translate(1.589 54.831)"><g transform="translate(0 0)"><path class="a" d="M53.781,54.831H28.617a.662.662,0,0,0-.662.663v18.82a.662.662,0,0,0,.662.663H53.781a.662.662,0,0,0,.662-.663V55.494A.663.663,0,0,0,53.781,54.831Zm-5.3,14.983-5.195.543a3.08,3.08,0,0,1-2.09-.543,3.08,3.08,0,0,1-2.09.543l-5.195-.543V59.179h0l3.954-.461a6.7,6.7,0,0,1,3.331.461,6.7,6.7,0,0,1,3.331-.461l3.954.461V69.814Z" transform="translate(-27.955 -54.831)"/></g></g><g transform="translate(12.514 61.399)"><path class="a" d="M220.167,169.365l-3.589-1.8a1.122,1.122,0,0,0-1.626,1v3.6a1.121,1.121,0,0,0,1.626,1l3.589-1.8a1.122,1.122,0,0,0,0-2.007Z" transform="translate(-214.952 -167.445)"/></g><g transform="translate(0 76.199)"><g transform="translate(0 0)"><path class="a" d="M28.676,422.962H.991a.972.972,0,1,0,0,1.945H28.676a.972.972,0,1,0,0-1.945Z" transform="translate(0 -422.962)"/></g></g></g></svg>