<svg xmlns="http://www.w3.org/2000/svg" width="20" height="15.716" viewBox="0 0 20 15.716"><defs><style>.a{fill:#b3afb3;}</style></defs><g transform="translate(0 -54.831)"><g transform="translate(1.071 54.831)"><g transform="translate(0 0)"><path class="a" d="M45.366,54.831H28.4a.447.447,0,0,0-.446.447V67.966a.447.447,0,0,0,.446.447H45.366a.447.447,0,0,0,.446-.447V55.278A.447.447,0,0,0,45.366,54.831Zm-3.571,10.1-3.5.366a2.076,2.076,0,0,1-1.409-.366,2.077,2.077,0,0,1-1.409.366l-3.5-.366v-7.17h0l2.665-.311a4.516,4.516,0,0,1,2.246.311,4.514,4.514,0,0,1,2.246-.311l2.665.311v7.17Z" transform="translate(-27.955 -54.831)"/></g></g><g transform="translate(8.436 59.259)"><path class="a" d="M218.467,168.739l-2.419-1.213a.757.757,0,0,0-1.1.676v2.426a.756.756,0,0,0,1.1.676l2.419-1.213a.757.757,0,0,0,0-1.353Z" transform="translate(-214.952 -167.445)"/></g><g transform="translate(0 69.236)"><g transform="translate(0 0)"><path class="a" d="M19.332,422.962H.668a.656.656,0,1,0,0,1.311H19.332a.656.656,0,1,0,0-1.311Z" transform="translate(0 -422.962)"/></g></g></g></svg>